<svg width="79" height="85" viewBox="0 0 79 85" fill="none" xmlns="http://www.w3.org/2000/svg">
<path d="M29.8779 62.2622C29.5183 62.2622 29.1259 62.1573 28.799 61.9826C26.2815 60.6192 24.1236 58.5916 22.5542 56.0745C21.2464 53.977 21.2464 51.2852 22.5542 49.1877C24.1236 46.6707 26.2815 44.6431 28.799 43.3146C30.0087 42.6504 31.48 43.2097 32.1012 44.5032C32.7224 45.7967 32.232 47.3698 30.9896 48.034C29.224 48.9779 27.72 50.4112 26.6411 52.1592C26.4449 52.4738 26.4449 52.8933 26.6411 53.2429C27.72 54.9908 29.224 56.4241 30.9896 57.368C32.1993 58.0322 32.6897 59.6054 32.1012 60.8988C31.6435 61.7378 30.7607 62.2622 29.8779 62.2622Z" fill="#EA222B"/>
<path d="M50.1759 62.2622C49.2605 62.2622 48.4104 61.7378 47.9853 60.8289C47.3641 59.5354 47.8546 57.9623 49.097 57.2981C50.8625 56.3542 52.3665 54.9209 53.4454 53.173C53.6416 52.8583 53.6416 52.4388 53.4454 52.0892C52.3665 50.3413 50.8625 48.908 49.097 47.9641C47.8873 47.2999 47.3968 45.7268 47.9853 44.4333C48.6066 43.1398 50.0778 42.6154 51.2876 43.2447C53.8051 44.6081 55.963 46.6357 57.5323 49.1527C58.8401 51.2502 58.8401 53.942 57.5323 56.0396C55.963 58.5566 53.8051 60.5842 51.2876 61.9126C50.8952 62.1573 50.5356 62.2622 50.1759 62.2622Z" fill="#EA222B"/>
<path d="M49.492 79.7419H29.8749C12.1214 79.7419 4.53613 71.6315 4.53613 52.649V31.6738C4.53613 12.6912 12.1214 4.58078 29.8749 4.58078H49.492C67.2454 4.58078 74.8307 12.6912 74.8307 31.6738V52.649C74.8307 71.6315 67.2454 79.7419 49.492 79.7419ZM29.8749 9.82458C14.8024 9.82458 9.4404 15.5578 9.4404 31.6738V52.649C9.4404 68.7649 14.8024 74.4981 29.8749 74.4981H49.492C64.5644 74.4981 69.9264 68.7649 69.9264 52.649V31.6738C69.9264 15.5578 64.5644 9.82458 49.492 9.82458H29.8749Z" fill="#EA222B"/>
<path d="M7.74181 30.8347C6.40131 30.8347 5.28967 29.6461 5.28967 28.2128C5.28967 26.7795 6.36861 25.5909 7.74181 25.5909L70.582 25.556C71.9225 25.556 73.0341 26.7446 73.0341 28.1779C73.0341 29.6112 71.9552 30.7998 70.582 30.7998L7.74181 30.8347Z" fill="#EA222B"/>
</svg>
