<svg width="79" height="84" viewBox="0 0 79 84" fill="none" xmlns="http://www.w3.org/2000/svg">
<path d="M54.493 9.3222H23.9769C22.8207 9.3222 21.7118 9.81328 20.8943 10.6874C20.0767 11.5615 19.6174 12.7471 19.6174 13.9833V69.9166C19.6174 71.1529 20.0767 72.3384 20.8943 73.2125C21.7118 74.0867 22.8207 74.5778 23.9769 74.5778H54.493C55.6492 74.5778 56.758 74.0867 57.5756 73.2125C58.3931 72.3384 58.8524 71.1529 58.8524 69.9166V13.9833C58.8524 12.7471 58.3931 11.5615 57.5756 10.6874C56.758 9.81328 55.6492 9.3222 54.493 9.3222ZM23.9769 13.9833H54.493V55.9333H23.9769V13.9833ZM23.9769 69.9166V60.5944H54.493V69.9166H23.9769Z" fill="#2639ED"/>
<path d="M37.0552 62.925H41.4146V67.5861H37.0552V62.925Z" fill="#2639ED"/>
</svg>
