<svg width="48" height="48" viewBox="0 0 48 48" fill="none" xmlns="http://www.w3.org/2000/svg">
<g clip-path="url(#clip0_180_143)">
<g clip-path="url(#clip1_180_143)">
<circle cx="23.6" cy="24.0001" r="24" fill="#FFCBCB"/>
<path fill-rule="evenodd" clip-rule="evenodd" d="M7 19.2857C7 18.1491 7.53732 17.059 8.49376 16.2553C9.45019 15.4515 10.7474 15 12.1 15H35.9C37.2526 15 38.5498 15.4515 39.5062 16.2553C40.4627 17.059 41 18.1491 41 19.2857V30.7143C41 31.8509 40.4627 32.941 39.5062 33.7447C38.5498 34.5485 37.2526 35 35.9 35H12.1C10.7474 35 9.45019 34.5485 8.49376 33.7447C7.53732 32.941 7 31.8509 7 30.7143V19.2857ZM12.1 17.8571C11.6491 17.8571 11.2167 18.0077 10.8979 18.2756C10.5791 18.5435 10.4 18.9068 10.4 19.2857V30.7143C10.4 31.0932 10.5791 31.4565 10.8979 31.7244C11.2167 31.9923 11.6491 32.1429 12.1 32.1429H35.9C36.3509 32.1429 36.7833 31.9923 37.1021 31.7244C37.4209 31.4565 37.6 31.0932 37.6 30.7143V19.2857C37.6 18.9068 37.4209 18.5435 37.1021 18.2756C36.7833 18.0077 36.3509 17.8571 35.9 17.8571H12.1Z" fill="#EA222B"/>
<path d="M13 20.25C13 20.1837 13.0527 20.1201 13.1464 20.0732C13.2402 20.0263 13.3674 20 13.5 20H14.5C14.6326 20 14.7598 20.0263 14.8536 20.0732C14.9473 20.1201 15 20.1837 15 20.25V20.75C15 20.8163 14.9473 20.8799 14.8536 20.9268C14.7598 20.9737 14.6326 21 14.5 21H13.5C13.3674 21 13.2402 20.9737 13.1464 20.9268C13.0527 20.8799 13 20.8163 13 20.75V20.25Z" fill="#EA222B"/>
<path fill-rule="evenodd" clip-rule="evenodd" d="M12 20.6C12 20.1757 12.1686 19.7687 12.4686 19.4686C12.7687 19.1686 13.1757 19 13.6 19H14.4C14.8243 19 15.2313 19.1686 15.5314 19.4686C15.8314 19.7687 16 20.1757 16 20.6V21.4C16 21.8243 15.8314 22.2313 15.5314 22.5314C15.2313 22.8314 14.8243 23 14.4 23H13.6C13.1757 23 12.7687 22.8314 12.4686 22.5314C12.1686 22.2313 12 21.8243 12 21.4V20.6ZM14 21.2928C14.1215 21.2225 14.2225 21.1215 14.2928 21C14.2225 20.8785 14.1215 20.7775 14 20.7072C13.8785 20.7775 13.7775 20.8785 13.7072 21C13.7776 21.1216 13.8784 21.224 14 21.2928Z" fill="#EA222B"/>
<path d="M18 20.25C18 20.1837 18.0527 20.1201 18.1464 20.0732C18.2402 20.0263 18.3674 20 18.5 20H19.5C19.6326 20 19.7598 20.0263 19.8536 20.0732C19.9473 20.1201 20 20.1837 20 20.25V20.75C20 20.8163 19.9473 20.8799 19.8536 20.9268C19.7598 20.9737 19.6326 21 19.5 21H18.5C18.3674 21 18.2402 20.9737 18.1464 20.9268C18.0527 20.8799 18 20.8163 18 20.75V20.25Z" fill="#EA222B"/>
<path fill-rule="evenodd" clip-rule="evenodd" d="M17 20.6C17 20.1757 17.1686 19.7687 17.4686 19.4686C17.7687 19.1686 18.1757 19 18.6 19H19.4C19.8243 19 20.2313 19.1686 20.5314 19.4686C20.8314 19.7687 21 20.1757 21 20.6V21.4C21 21.8243 20.8314 22.2313 20.5314 22.5314C20.2313 22.8314 19.8243 23 19.4 23H18.6C18.1757 23 17.7687 22.8314 17.4686 22.5314C17.1686 22.2313 17 21.8243 17 21.4V20.6ZM19 21.2928C19.1215 21.2225 19.2225 21.1215 19.2928 21C19.2225 20.8785 19.1215 20.7775 19 20.7072C18.8785 20.7775 18.7775 20.8785 18.7072 21C18.7776 21.1216 18.8784 21.224 19 21.2928Z" fill="#EA222B"/>
<path d="M23 20.25C23 20.1837 23.0527 20.1201 23.1464 20.0732C23.2402 20.0263 23.3674 20 23.5 20H24.5C24.6326 20 24.7598 20.0263 24.8536 20.0732C24.9473 20.1201 25 20.1837 25 20.25V20.75C25 20.8163 24.9473 20.8799 24.8536 20.9268C24.7598 20.9737 24.6326 21 24.5 21H23.5C23.3674 21 23.2402 20.9737 23.1464 20.9268C23.0527 20.8799 23 20.8163 23 20.75V20.25Z" fill="#EA222B"/>
<path fill-rule="evenodd" clip-rule="evenodd" d="M22 20.6C22 20.1757 22.1686 19.7687 22.4686 19.4686C22.7687 19.1686 23.1757 19 23.6 19H24.4C24.8243 19 25.2313 19.1686 25.5314 19.4686C25.8314 19.7687 26 20.1757 26 20.6V21.4C26 21.8243 25.8314 22.2313 25.5314 22.5314C25.2313 22.8314 24.8243 23 24.4 23H23.6C23.1757 23 22.7687 22.8314 22.4686 22.5314C22.1686 22.2313 22 21.8243 22 21.4V20.6ZM24 21.2928C24.1215 21.2225 24.2225 21.1215 24.2928 21C24.2225 20.8785 24.1215 20.7775 24 20.7072C23.8785 20.7775 23.7775 20.8785 23.7072 21C23.7776 21.1216 23.8784 21.224 24 21.2928Z" fill="#EA222B"/>
<path d="M28 20.25C28 20.1837 28.0527 20.1201 28.1464 20.0732C28.2402 20.0263 28.3674 20 28.5 20H29.5C29.6326 20 29.7598 20.0263 29.8536 20.0732C29.9473 20.1201 30 20.1837 30 20.25V20.75C30 20.8163 29.9473 20.8799 29.8536 20.9268C29.7598 20.9737 29.6326 21 29.5 21H28.5C28.3674 21 28.2402 20.9737 28.1464 20.9268C28.0527 20.8799 28 20.8163 28 20.75V20.25Z" fill="#EA222B"/>
<path fill-rule="evenodd" clip-rule="evenodd" d="M27 20.6C27 20.1757 27.1686 19.7687 27.4686 19.4686C27.7687 19.1686 28.1757 19 28.6 19H29.4C29.8243 19 30.2313 19.1686 30.5314 19.4686C30.8314 19.7687 31 20.1757 31 20.6V21.4C31 21.8243 30.8314 22.2313 30.5314 22.5314C30.2313 22.8314 29.8243 23 29.4 23H28.6C28.1757 23 27.7687 22.8314 27.4686 22.5314C27.1686 22.2313 27 21.8243 27 21.4V20.6ZM29 21.2928C29.1215 21.2225 29.2225 21.1215 29.2928 21C29.2225 20.8785 29.1215 20.7775 29 20.7072C28.8785 20.7775 28.7775 20.8785 28.7072 21C28.7776 21.1216 28.8784 21.224 29 21.2928Z" fill="#EA222B"/>
<path d="M33 20.25C33 20.1837 33.0527 20.1201 33.1464 20.0732C33.2402 20.0263 33.3674 20 33.5 20H34.5C34.6326 20 34.7598 20.0263 34.8536 20.0732C34.9473 20.1201 35 20.1837 35 20.25V20.75C35 20.8163 34.9473 20.8799 34.8536 20.9268C34.7598 20.9737 34.6326 21 34.5 21H33.5C33.3674 21 33.2402 20.9737 33.1464 20.9268C33.0527 20.8799 33 20.8163 33 20.75V20.25Z" fill="#EA222B"/>
<path fill-rule="evenodd" clip-rule="evenodd" d="M32 20.6C32 20.1757 32.1686 19.7687 32.4686 19.4686C32.7687 19.1686 33.1757 19 33.6 19H34.4C34.8243 19 35.2313 19.1686 35.5314 19.4686C35.8314 19.7687 36 20.1757 36 20.6V21.4C36 21.8243 35.8314 22.2313 35.5314 22.5314C35.2313 22.8314 34.8243 23 34.4 23H33.6C33.1757 23 32.7687 22.8314 32.4686 22.5314C32.1686 22.2313 32 21.8243 32 21.4V20.6ZM34 21.2928C34.1215 21.2225 34.2225 21.1215 34.2928 21C34.2225 20.8785 34.1215 20.7775 34 20.7072C33.8785 20.7775 33.7775 20.8785 33.7072 21C33.7776 21.1216 33.8784 21.224 34 21.2928Z" fill="#EA222B"/>
<path d="M16 24.5C16 24.3674 16.0263 24.2402 16.0732 24.1464C16.1201 24.0527 16.1837 24 16.25 24H16.75C16.8163 24 16.8799 24.0527 16.9268 24.1464C16.9737 24.2402 17 24.3674 17 24.5V25.5C17 25.6326 16.9737 25.7598 16.9268 25.8536C16.8799 25.9473 16.8163 26 16.75 26H16.25C16.1837 26 16.1201 25.9473 16.0732 25.8536C16.0263 25.7598 16 25.6326 16 25.5V24.5Z" fill="#EA222B"/>
<path fill-rule="evenodd" clip-rule="evenodd" d="M15 24.6C15 24.1757 15.1686 23.7687 15.4686 23.4686C15.7687 23.1686 16.1757 23 16.6 23H17.4C17.8243 23 18.2313 23.1686 18.5314 23.4686C18.8314 23.7687 19 24.1757 19 24.6V25.4C19 25.8243 18.8314 26.2313 18.5314 26.5314C18.2313 26.8314 17.8243 27 17.4 27H16.6C16.1757 27 15.7687 26.8314 15.4686 26.5314C15.1686 26.2313 15 25.8243 15 25.4V24.6ZM17 25.2928C17.1215 25.2225 17.2225 25.1215 17.2928 25C17.2225 24.8785 17.1215 24.7775 17 24.7072C16.8785 24.7775 16.7775 24.8785 16.7072 25C16.7776 25.1216 16.8784 25.224 17 25.2928Z" fill="#EA222B"/>
<path d="M21 24.5C21 24.3674 21.0527 24.2402 21.1464 24.1464C21.2402 24.0527 21.3674 24 21.5 24H22.5C22.6326 24 22.7598 24.0527 22.8536 24.1464C22.9473 24.2402 23 24.3674 23 24.5V25.5C23 25.6326 22.9473 25.7598 22.8536 25.8536C22.7598 25.9473 22.6326 26 22.5 26H21.5C21.3674 26 21.2402 25.9473 21.1464 25.8536C21.0527 25.7598 21 25.6326 21 25.5V24.5Z" fill="#EA222B"/>
<path fill-rule="evenodd" clip-rule="evenodd" d="M20 24.6C20 24.1757 20.1686 23.7687 20.4686 23.4686C20.7687 23.1686 21.1757 23 21.6 23H22.4C22.8243 23 23.2313 23.1686 23.5314 23.4686C23.8314 23.7687 24 24.1757 24 24.6V25.4C24 25.8243 23.8314 26.2313 23.5314 26.5314C23.2313 26.8314 22.8243 27 22.4 27H21.6C21.1757 27 20.7687 26.8314 20.4686 26.5314C20.1686 26.2313 20 25.8243 20 25.4V24.6ZM22 25.2928C22.1215 25.2225 22.2225 25.1215 22.2928 25C22.2225 24.8785 22.1215 24.7775 22 24.7072C21.8785 24.7775 21.7775 24.8785 21.7072 25C21.7776 25.1216 21.8784 25.224 22 25.2928Z" fill="#EA222B"/>
<path d="M26 24.5C26 24.3674 26.0527 24.2402 26.1464 24.1464C26.2402 24.0527 26.3674 24 26.5 24H27.5C27.6326 24 27.7598 24.0527 27.8536 24.1464C27.9473 24.2402 28 24.3674 28 24.5V25.5C28 25.6326 27.9473 25.7598 27.8536 25.8536C27.7598 25.9473 27.6326 26 27.5 26H26.5C26.3674 26 26.2402 25.9473 26.1464 25.8536C26.0527 25.7598 26 25.6326 26 25.5V24.5Z" fill="#EA222B"/>
<path fill-rule="evenodd" clip-rule="evenodd" d="M25 24.6C25 24.1757 25.1686 23.7687 25.4686 23.4686C25.7687 23.1686 26.1757 23 26.6 23H27.4C27.8243 23 28.2313 23.1686 28.5314 23.4686C28.8314 23.7687 29 24.1757 29 24.6V25.4C29 25.8243 28.8314 26.2313 28.5314 26.5314C28.2313 26.8314 27.8243 27 27.4 27H26.6C26.1757 27 25.7687 26.8314 25.4686 26.5314C25.1686 26.2313 25 25.8243 25 25.4V24.6ZM27 25.2928C27.1215 25.2225 27.2225 25.1215 27.2928 25C27.2225 24.8785 27.1215 24.7775 27 24.7072C26.8785 24.7775 26.7775 24.8785 26.7072 25C26.7776 25.1216 26.8784 25.224 27 25.2928Z" fill="#EA222B"/>
<path d="M31 24.5C31 24.3674 31.0527 24.2402 31.1464 24.1464C31.2402 24.0527 31.3674 24 31.5 24H32.5C32.6326 24 32.7598 24.0527 32.8536 24.1464C32.9473 24.2402 33 24.3674 33 24.5V25.5C33 25.6326 32.9473 25.7598 32.8536 25.8536C32.7598 25.9473 32.6326 26 32.5 26H31.5C31.3674 26 31.2402 25.9473 31.1464 25.8536C31.0527 25.7598 31 25.6326 31 25.5V24.5Z" fill="#EA222B"/>
<path fill-rule="evenodd" clip-rule="evenodd" d="M29.641 24.8906C29.641 24.5094 29.8247 24.1437 30.1517 23.8742C30.4787 23.6046 30.9222 23.4531 31.3846 23.4531H32.2564C32.7188 23.4531 33.1623 23.6046 33.4893 23.8742C33.8163 24.1437 34 24.5094 34 24.8906V25.6094C34 25.9906 33.8163 26.3563 33.4893 26.6258C33.1623 26.8954 32.7188 27.0469 32.2564 27.0469H31.3846C30.9222 27.0469 30.4787 26.8954 30.1517 26.6258C29.8247 26.3563 29.641 25.9906 29.641 25.6094V24.8906ZM31.8205 25.5131C31.9529 25.4499 32.0629 25.3592 32.1396 25.25C32.0629 25.1408 31.9529 25.0501 31.8205 24.9869C31.6881 25.0501 31.5781 25.1408 31.5014 25.25C31.5782 25.3592 31.688 25.4512 31.8205 25.5131ZM17 29.2031C17 28.9172 17.1378 28.643 17.383 28.4408C17.6283 28.2386 17.9609 28.125 18.3077 28.125H29.641C29.9878 28.125 30.3205 28.2386 30.5657 28.4408C30.8109 28.643 30.9487 28.9172 30.9487 29.2031V29.9219C30.9487 30.2078 30.8109 30.482 30.5657 30.6842C30.3205 30.8864 29.9878 31 29.641 31H18.3077C17.9609 31 17.6283 30.8864 17.383 30.6842C17.1378 30.482 17 30.2078 17 29.9219V29.2031ZM25.7179 8C26.1804 8 26.6239 8.15145 26.9509 8.42103C27.2778 8.69062 27.4615 9.05625 27.4615 9.4375V11.0116C27.4614 11.8546 27.2364 12.6873 26.8025 13.4507C26.3687 14.2141 25.7365 14.8895 24.9508 15.429L21.6031 17.729C21.4281 17.8552 21.2243 17.9513 21.0036 18.0116C20.7829 18.0719 20.5498 18.0952 20.318 18.0801C20.0863 18.0651 19.8605 18.012 19.654 17.9239C19.4475 17.8358 19.2644 17.7146 19.1156 17.5674C18.9667 17.4201 18.8551 17.2498 18.7873 17.0665C18.7195 16.8831 18.6968 16.6904 18.7206 16.4998C18.7444 16.3091 18.8143 16.1243 18.926 15.9562C19.0378 15.7881 19.1892 15.6401 19.3713 15.521L22.719 13.221C23.1122 12.951 23.4285 12.613 23.6454 12.2309C23.8624 11.8488 23.9747 11.432 23.9744 11.0101V9.4375C23.9744 9.05625 24.1581 8.69062 24.485 8.42103C24.812 8.15145 25.2555 8 25.7179 8Z" fill="#EA222B"/>
</g>
</g>
<defs>
<clipPath id="clip0_180_143">
<rect width="48" height="48" fill="white"/>
</clipPath>
<clipPath id="clip1_180_143">
<path d="M0 24C0 10.7452 10.7452 0 24 0V0C37.2548 0 48 10.7452 48 24V24C48 37.2548 37.2548 48 24 48V48C10.7452 48 0 37.2548 0 24V24Z" fill="white"/>
</clipPath>
</defs>
</svg>
