<svg width="49" height="48" viewBox="0 0 49 48" fill="none" xmlns="http://www.w3.org/2000/svg">
<g clip-path="url(#clip0_180_139)">
<circle cx="24" cy="24" r="24" fill="#FFCBCB"/>
<path d="M35.6667 9C36.5507 9 37.3986 9.35119 38.0237 9.97631C38.6488 10.6014 39 11.4493 39 12.3333V30.6667C39 31.5507 38.6488 32.3986 38.0237 33.0237C37.3986 33.6488 36.5507 34 35.6667 34H29V35.6667H30.6667C31.1087 35.6667 31.5326 35.8423 31.8452 36.1548C32.1577 36.4674 32.3333 36.8913 32.3333 37.3333C32.3333 37.7754 32.1577 38.1993 31.8452 38.5118C31.5326 38.8244 31.1087 39 30.6667 39H17.3333C16.8913 39 16.4674 38.8244 16.1548 38.5118C15.8423 38.1993 15.6667 37.7754 15.6667 37.3333C15.6667 36.8913 15.8423 36.4674 16.1548 36.1548C16.4674 35.8423 16.8913 35.6667 17.3333 35.6667H19V34H12.3333C11.4493 34 10.6014 33.6488 9.97631 33.0237C9.35119 32.3986 9 31.5507 9 30.6667V12.3333C9 11.4493 9.35119 10.6014 9.97631 9.97631C10.6014 9.35119 11.4493 9 12.3333 9H35.6667ZM25.6667 34H22.3333V35.6667H25.6667V34ZM35.6667 12.3333H12.3333V30.6667H35.6667V12.3333Z" fill="#EA222B"/>
</g>
<defs>
<clipPath id="clip0_180_139">
<path d="M0.400024 23.9999C0.400024 10.7451 11.1452 -6.10352e-05 24.4 -6.10352e-05V-6.10352e-05C37.6549 -6.10352e-05 48.4 10.7451 48.4 23.9999V23.9999C48.4 37.2548 37.6549 47.9999 24.4 47.9999V47.9999C11.1452 47.9999 0.400024 37.2548 0.400024 23.9999V23.9999Z" fill="white"/>
</clipPath>
</defs>
</svg>
